<svg width="21" height="11" viewBox="0 0 21 11" fill="none" xmlns="http://www.w3.org/2000/svg">
<path d="M0.672 3.064H1.548V3.784C1.78 3.528 2.036 3.328 2.316 3.184C2.604 3.032 2.904 2.956 3.216 2.956C3.56 2.956 3.824 3.084 4.008 3.34C4.192 3.596 4.284 3.96 4.284 4.432V10H3.408V4.624C3.408 4.272 3.352 4.02 3.24 3.868C3.136 3.716 2.972 3.64 2.748 3.64C2.556 3.64 2.356 3.7 2.148 3.82C1.94 3.932 1.74 4.088 1.548 4.288V10H0.672V3.064Z" fill="#262626" fill-opacity="0.5"/>
<path d="M7.35816 10.108C6.76616 10.108 6.33816 9.884 6.07416 9.436C5.81816 8.988 5.69016 8.244 5.69016 7.204V5.92C5.69016 4.936 5.80616 4.196 6.03816 3.7C6.27016 3.204 6.69816 2.956 7.32216 2.956C7.77016 2.956 8.17816 3.156 8.54616 3.556V0.279999H9.42216V10H8.54616V9.508C8.17816 9.908 7.78216 10.108 7.35816 10.108ZM7.53816 9.412C7.87416 9.412 8.21016 9.26 8.54616 8.956V4.132C8.17816 3.804 7.83416 3.64 7.51416 3.64C7.14616 3.64 6.89416 3.796 6.75816 4.108C6.63016 4.42 6.56616 4.928 6.56616 5.632V7.276C6.56616 8.028 6.63016 8.572 6.75816 8.908C6.89416 9.244 7.15416 9.412 7.53816 9.412ZM11.0792 3.064H11.9672V4.012C12.1752 3.668 12.4192 3.412 12.6992 3.244C12.9872 3.076 13.2752 2.992 13.5632 2.992C13.6192 2.992 13.6712 2.996 13.7192 3.004V3.94C13.5752 3.892 13.4312 3.868 13.2872 3.868C12.7352 3.868 12.2952 4.136 11.9672 4.672V10H11.0792V3.064ZM15.9865 10.108C15.5705 10.108 15.2345 9.96 14.9785 9.664C14.7225 9.368 14.5945 9 14.5945 8.56C14.5945 8.104 14.6825 7.728 14.8585 7.432C15.0425 7.136 15.3225 6.872 15.6985 6.64C16.0745 6.408 16.6385 6.124 17.3905 5.788V5.296C17.3905 4.864 17.3625 4.528 17.3065 4.288C17.2585 4.048 17.1705 3.876 17.0425 3.772C16.9225 3.668 16.7505 3.616 16.5265 3.616C15.8785 3.616 15.5545 4.012 15.5545 4.804V5.044L14.6905 5.032C14.6985 4.32 14.8505 3.796 15.1465 3.46C15.4425 3.124 15.9185 2.956 16.5745 2.956C17.1825 2.956 17.6145 3.14 17.8705 3.508C18.1345 3.876 18.2665 4.456 18.2665 5.248V8.62C18.2665 8.844 18.2705 9.1 18.2785 9.388C18.2945 9.676 18.3105 9.88 18.3265 10H17.5465L17.4145 9.04C17.3105 9.344 17.1305 9.6 16.8745 9.808C16.6265 10.008 16.3305 10.108 15.9865 10.108ZM16.2625 9.364C16.5025 9.364 16.7185 9.284 16.9105 9.124C17.1105 8.956 17.2705 8.76 17.3905 8.536V6.376C16.8465 6.664 16.4505 6.888 16.2025 7.048C15.9625 7.208 15.7785 7.388 15.6505 7.588C15.5305 7.78 15.4705 8.032 15.4705 8.344C15.4705 8.688 15.5425 8.944 15.6865 9.112C15.8385 9.28 16.0305 9.364 16.2625 9.364ZM19.8441 8.68H20.7681V10H19.8441V8.68Z" fill="#262626"/>
</svg>
