<svg width="27" height="10" viewBox="0 0 27 10" fill="none" xmlns="http://www.w3.org/2000/svg">
<path d="M5.64 7.764C5.64 7.968 5.652 8.162 5.676 8.346C5.704 8.53 5.754 8.692 5.826 8.832C5.634 8.996 5.39 9.078 5.094 9.078C4.87 9.078 4.712 9.016 4.62 8.892C4.528 8.768 4.482 8.582 4.482 8.334V5.22C4.482 4.804 4.428 4.502 4.32 4.314C4.212 4.122 4.006 4.026 3.702 4.026C3.45 4.026 3.178 4.096 2.886 4.236C2.598 4.376 2.344 4.566 2.124 4.806V9C1.968 9.032 1.776 9.048 1.548 9.048C1.32 9.048 1.126 9.032 0.966 9V3.108L1.038 3.036H1.476C1.708 3.036 1.872 3.102 1.968 3.234C2.064 3.362 2.116 3.544 2.124 3.78C2.384 3.544 2.68 3.352 3.012 3.204C3.348 3.052 3.696 2.976 4.056 2.976C4.432 2.976 4.736 3.064 4.968 3.24C5.2 3.412 5.37 3.646 5.478 3.942C5.586 4.234 5.64 4.562 5.64 4.926V7.764Z" fill="black"/>
<path d="M9.79078 9.168C9.28678 9.168 8.82278 9.048 8.39878 8.808C7.97478 8.568 7.63878 8.22 7.39078 7.764C7.14278 7.308 7.01878 6.768 7.01878 6.144V5.988C7.01878 5.364 7.14278 4.828 7.39078 4.38C7.63878 3.924 7.97078 3.576 8.38678 3.336C8.81078 3.088 9.27878 2.964 9.79078 2.964C10.1988 2.964 10.5428 3.02 10.8228 3.132C11.1108 3.236 11.3428 3.372 11.5188 3.54C11.6948 3.7 11.8308 3.872 11.9268 4.056H12.0948V0.599999H13.0428V9H12.1188V8.028H11.9508C11.7908 8.324 11.5428 8.588 11.2068 8.82C10.8708 9.052 10.3988 9.168 9.79078 9.168ZM10.0428 8.328C10.6508 8.328 11.1428 8.136 11.5188 7.752C11.9028 7.36 12.0948 6.816 12.0948 6.12V6.012C12.0948 5.316 11.9028 4.776 11.5188 4.392C11.1428 4 10.6508 3.804 10.0428 3.804C9.44278 3.804 8.94678 4 8.55478 4.392C8.17078 4.776 7.97878 5.316 7.97878 6.012V6.12C7.97878 6.816 8.17078 7.36 8.55478 7.752C8.94678 8.136 9.44278 8.328 10.0428 8.328ZM14.7894 9V3.132H15.7134V3.852H15.8814C15.9854 3.596 16.1454 3.408 16.3614 3.288C16.5774 3.168 16.8614 3.108 17.2134 3.108H17.9094V3.972H17.1534C16.7294 3.972 16.3854 4.092 16.1214 4.332C15.8654 4.564 15.7374 4.928 15.7374 5.424V9H14.7894ZM20.6502 9.168C20.2422 9.168 19.8702 9.096 19.5342 8.952C19.1982 8.808 18.9342 8.6 18.7422 8.328C18.5502 8.056 18.4542 7.724 18.4542 7.332C18.4542 6.932 18.5502 6.604 18.7422 6.348C18.9342 6.084 19.1982 5.888 19.5342 5.76C19.8702 5.624 20.2462 5.556 20.6622 5.556H22.6422V5.124C22.6422 4.708 22.5182 4.38 22.2702 4.14C22.0302 3.9 21.6702 3.78 21.1902 3.78C20.7182 3.78 20.3502 3.896 20.0862 4.128C19.8222 4.352 19.6422 4.656 19.5462 5.04L18.6582 4.752C18.7542 4.424 18.9062 4.128 19.1142 3.864C19.3222 3.592 19.5982 3.376 19.9422 3.216C20.2942 3.048 20.7142 2.964 21.2022 2.964C21.9542 2.964 22.5382 3.16 22.9542 3.552C23.3702 3.936 23.5782 4.48 23.5782 5.184V7.836C23.5782 8.076 23.6902 8.196 23.9142 8.196H24.4542V9H23.6262C23.3622 9 23.1502 8.928 22.9902 8.784C22.8302 8.632 22.7502 8.432 22.7502 8.184V8.124H22.6062C22.5182 8.276 22.3982 8.436 22.2462 8.604C22.1022 8.764 21.9022 8.896 21.6462 9C21.3902 9.112 21.0582 9.168 20.6502 9.168ZM20.7582 8.352C21.3182 8.352 21.7702 8.188 22.1142 7.86C22.4662 7.524 22.6422 7.056 22.6422 6.456V6.324H20.6982C20.3222 6.324 20.0102 6.408 19.7622 6.576C19.5222 6.736 19.4022 6.98 19.4022 7.308C19.4022 7.636 19.5262 7.892 19.7742 8.076C20.0302 8.26 20.3582 8.352 20.7582 8.352Z" fill="#7A7A7A"/>
<path d="M26.0286 9.168C25.7966 9.168 25.6006 9.092 25.4406 8.94C25.2886 8.788 25.2126 8.592 25.2126 8.352C25.2126 8.112 25.2886 7.916 25.4406 7.764C25.6006 7.612 25.7966 7.536 26.0286 7.536C26.2686 7.536 26.4646 7.612 26.6166 7.764C26.7686 7.916 26.8446 8.112 26.8446 8.352C26.8446 8.592 26.7686 8.788 26.6166 8.94C26.4646 9.092 26.2686 9.168 26.0286 9.168Z" fill="#0E0E2C"/>
</svg>
